<svg width="555" height="467" viewBox="0 0 555 467" fill="none" xmlns="http://www.w3.org/2000/svg">
<ellipse cx="49.7305" cy="19.5" rx="28" ry="8.5" fill="#E4ECF9"/>
<path d="M21.7305 8.5V19.5007C21.7305 14.3147 35.3991 11.0656 49.2305 11.0037C63.3951 10.9403 77.7305 14.189 77.7305 19.4992V8.50069C77.7305 3.19047 63.3951 -0.0625077 49.2305 0.000911858C35.3991 0.0628391 21.7305 3.31397 21.7305 8.5Z" fill="#F3F6FD"/>
<ellipse cx="48.7305" cy="32.9721" rx="16" ry="6.5268" fill="#3A4146"/>
<path d="M32.7305 24.5268V32.9738C32.7305 29.5 40.5411 26.4968 48.4448 26.4493C56.5389 26.4006 64.7305 29.5 64.7305 32.9726V24.5273C64.7305 20.4498 56.5389 17.952 48.4448 18.0007C40.5411 18.0483 32.7305 20.5447 32.7305 24.5268Z" fill="#4A5258"/>
<ellipse cx="46.7305" cy="48.5" rx="14" ry="13.5" fill="#D1DCF7"/>
<path d="M77.9109 60.3906C81.5192 45.4146 95.052 32.7717 110.89 36.8008L99.0616 33.7917L78.0862 28.4558C62.248 24.4267 48.7025 37.0663 45.0941 52.0423C41.5707 66.666 47.6029 83.5379 63.0708 87.4727L83.7279 92.7277L95.8814 95.8194C80.4136 91.8845 74.3874 75.0142 77.9109 60.3906Z" fill="#E4ECF9"/>
<path d="M95.8563 95.8128C80.4073 91.866 74.3897 75.0061 77.9112 60.3905L65.7577 57.5674C62.2343 72.191 68.2621 88.7866 83.7299 92.7214L95.8563 95.8128Z" fill="#BBCAEA"/>
<path d="M114.581 33.1907C99.3044 29.4128 83.2539 40.3631 78.7307 57.6489C78.0407 60.2858 77.6588 62.9178 77.5613 65.4984L134.912 66.9984C137.067 51.2769 128.577 36.6522 114.581 33.1907Z" fill="#B9C9E9"/>
<ellipse cx="103.39" cy="66.3116" rx="30.4486" ry="26.1595" transform="rotate(-75.7273 103.39 66.3116)" fill="#4A5258"/>
<ellipse cx="104.661" cy="67.4604" rx="24.955" ry="21.4397" transform="rotate(-75.7273 104.661 67.4604)" fill="#42C0F3"/>
<ellipse cx="104.907" cy="67.1621" rx="19.6234" ry="16.8592" transform="rotate(-75.7273 104.907 67.1621)" fill="#64D3FF"/>
<ellipse cx="100.457" cy="62.4953" rx="3.5" ry="5.5" transform="rotate(28.9672 100.457 62.4953)" fill="#8ADDFF"/>
<ellipse cx="96.2877" cy="73.8609" rx="2.18452" ry="3.43282" transform="rotate(14.6006 96.2877 73.8609)" fill="#8ADDFF"/>
<path d="M77.5613 65.4984C77.6588 62.9178 78.0407 60.2858 78.7307 57.6489C83.2539 40.3631 99.3044 29.4128 114.581 33.1907C128.577 36.6522 137.067 51.2769 134.912 66.9984" stroke="#D1DCF8" stroke-width="2"/>
<path d="M69.2305 430.5H26.7305L34.2305 466H61.2305L69.2305 430.5Z" fill="#E4ECF9"/>
<path d="M61.2292 466L69.2292 430.5H66.7292C59.0215 449.737 51.2267 456.358 33.793 463.935L34.2292 466H61.2292Z" fill="#D1DCF8"/>
<path d="M16.7301 382.971C9.73014 380.968 -1.76986 383.971 0.230141 386.472C2.23014 388.974 6.73014 387.469 8.73047 389.969C10.7308 392.469 6.73014 392.476 7.73014 394.972C8.73014 397.469 21.7298 399.976 22.2301 403.472C22.7305 406.969 15.7305 411.969 20.7305 413.969C25.7305 415.969 35.7301 414.472 40.2301 418.472C41.2301 412.972 44.7301 409.472 43.7301 405.472C42.7301 401.472 36.2301 400.472 35.7301 397.972C35.2301 395.472 38.2301 389.474 36.7301 388.474C35.2301 387.474 31.7301 393.474 29.2301 392.972C26.7301 392.471 23.7301 384.974 16.7301 382.971Z" fill="#7BD093"/>
<path d="M15.2305 386.969C29.7305 400.969 38.494 408.954 41.7305 429.969H42.7305C39.494 408.954 31.3762 400.264 15.2305 386.969Z" fill="#68C07E"/>
<path d="M77.9097 382.623C84.91 380.62 96.4106 383.624 94.4105 386.125C92.4104 388.626 87.9102 387.121 85.9097 389.621C83.9093 392.122 87.9102 392.129 86.9101 394.625C85.9101 397.122 72.9098 399.629 72.4094 403.126C71.9091 406.622 78.9094 411.622 73.9092 413.623C68.9089 415.623 58.9088 414.126 54.4086 418.126C53.4085 412.626 49.9084 409.126 50.9084 405.126C51.9085 401.126 58.4088 400.126 58.9088 397.626C59.4088 395.125 56.4087 389.126 57.9087 388.126C59.4088 387.126 62.909 393.127 65.4091 392.625C67.9092 392.124 70.9094 384.626 77.9097 382.623Z" fill="#7BD093"/>
<path d="M79.4062 386.621C64.9056 400.622 56.1416 408.608 52.905 429.623H51.905C55.1416 408.608 63.2598 399.917 79.4062 386.621Z" fill="#68C07E"/>
<path d="M41.7292 387.967C39.7305 395 42.7288 409.5 46.7292 413.967C46.7292 413.967 50.7292 414.467 53.2292 411.467C55.7292 408.467 53.7292 400.967 54.7292 397.467C55.7292 393.967 62.2292 389.967 62.2292 385.967C62.2292 381.967 59.2292 381.467 59.7292 377.467C60.2292 373.467 70.2292 366.967 70.2292 361.467C70.2292 355.967 61.2292 349.967 60.7292 345.967C60.2292 341.967 64.7292 327.5 59.7292 321.995C54.7292 316.489 48.7292 324.937 46.7292 331.967C44.7292 338.997 49.2292 350.967 46.7292 356.967C44.2292 362.967 35.2292 358.434 33.7292 362.967C32.2292 367.5 43.7278 380.934 41.7292 387.967Z" fill="#71C687"/>
<path d="M55.7305 345.469C46.7508 371.024 47.7305 385.469 45.7305 429.969H47.7305C48.7305 384.969 47.7305 374.969 55.7305 345.469Z" fill="#68C07E"/>
<path d="M129.23 466.5V84.5H134.23V466.5H129.23Z" fill="#BE5B3C"/>
<path d="M133.73 467V85H357.73V467H133.73Z" fill="#D38060"/>
<rect x="161.73" y="112" width="169" height="109" fill="#CE704C"/>
<rect x="192.73" y="142" width="108" height="5" rx="2.5" fill="#C16144"/>
<rect x="192.73" y="164" width="108" height="5" rx="2.5" fill="#C16144"/>
<rect x="192.73" y="186" width="108" height="5" rx="2.5" fill="#C16144"/>
<path d="M330.73 112H161.73V124.5H318.73V221H330.73V112Z" fill="#C16244"/>
<rect x="161.73" y="332" width="169" height="43" fill="#CE704C"/>
<path d="M330.73 332H161.73V345H318.73V375H330.73V332Z" fill="#C16244"/>
<rect x="161.73" y="392" width="169" height="43" fill="#CE704C"/>
<path d="M330.73 392H161.73V405H318.73V435H330.73V392Z" fill="#C16244"/>
<path fill-rule="evenodd" clip-rule="evenodd" d="M336.048 270C334.4 274.661 329.955 278 324.73 278C318.103 278 312.73 272.627 312.73 266C312.73 259.373 318.103 254 324.73 254C329.955 254 334.4 257.339 336.048 262H359.73C361.94 262 363.73 263.791 363.73 266C363.73 268.209 361.94 270 359.73 270H336.048Z" fill="#E4ECF9"/>
<path d="M464.23 142.5C470.118 141.202 472.353 139.652 472.73 134L493.23 127C493.275 137.37 494.498 141.297 500.23 142.5C493.73 161 472.73 159 464.23 142.5Z" fill="#FDC8AB"/>
<path d="M472.731 135C458.723 131 458.233 114.996 466.239 94.4961L466.731 93L489.731 97.5L490.231 98.9961C490.559 100.929 491.072 101.727 492.731 102.496V119.996C494.772 116.651 498.144 115.543 499.731 115.996C500.655 116.26 501.3 116.792 501.731 117.452C502.932 119.294 502.467 122.141 501.731 122.996C500.731 124.158 496.731 127.5 493.231 129.5C486.745 136.061 480.223 136.5 472.731 135Z" fill="#FDC8AB"/>
<path d="M496.23 120.001C499.73 119.001 500.23 122.502 497.23 124.001" stroke="#FDB79C"/>
<path d="M492.732 119.996C494.773 116.651 498.145 115.543 499.732 115.996C500.656 116.26 501.301 116.792 501.732 117.453C519.732 103 511.732 77.9971 490.732 82.9993C489.229 78.9252 488.261 77.3963 486.232 76.4964H475.232C470.232 69.9976 462.229 71.5035 460.229 80.0013C459.588 87.6001 462.084 90.8806 466.313 94.2488C470.281 97.4089 477.537 98.8819 490.232 98.9964V98.9995C490.56 100.93 491.074 101.728 492.732 102.496V119.996Z" fill="#383F44"/>
<path d="M465.23 124.5C468.23 128 473.73 129.5 474.73 126M471.23 111.5C468.841 113.926 465.23 116.5 465.73 118C466.23 119.5 467.762 119.51 469.23 119.5M481.73 104C485.296 104.682 486.708 105.546 486.73 109M467.73 100C471.438 100.282 472.83 100.852 472.73 103" stroke="#513938"/>
<ellipse cx="479.932" cy="112" rx="1.2" ry="2" transform="rotate(17.6327 479.932 112)" fill="#513938"/>
<ellipse cx="468.478" cy="107.27" rx="1.2" ry="2" transform="rotate(9.62346 468.478 107.27)" fill="#513938"/>
<path d="M472.73 135C477.23 137 486.744 136.061 493.231 129.5" stroke="#FDB79C"/>
<path d="M386.22 220.501C377.006 206.616 371.264 194.993 360.72 172.001C347.813 162.483 343.583 157.675 346.72 151.001C351.862 147.774 356.564 149.908 366.723 157.501C368.723 148.5 374.223 150 374.223 164.5C389.58 181.862 398.009 191.477 405.223 203.5C408.748 198.866 410.704 195.483 413.723 192.785C414.859 191.769 416.145 190.851 417.723 190L427.973 201.5L438.223 213H439.223L435.72 217.001C434.184 218.232 432.695 219.399 431.25 220.501C430.728 220.933 430.208 221.325 429.69 221.678C408.996 237.115 397.656 238.34 386.22 220.501Z" fill="#FDC8AB"/>
<path d="M439.224 213H438.224L427.974 201.5L417.724 190C416.146 190.851 414.86 191.769 413.724 192.785C412.224 208 408.785 216.057 413.724 220.501C418.724 225 424.811 225.831 431.251 220.501C432.696 219.399 434.185 218.232 435.722 217.001L439.224 213Z" fill="#FDB79C"/>
<path d="M517.23 220L546.73 197.5C548.139 200.129 549.36 202.627 550.391 205C560.332 227.897 552.454 239.107 522.73 243.5L518.869 227L517.23 220Z" fill="#FDC8AB"/>
<path d="M517.23 220L546.73 197.5C548.139 200.129 549.36 202.627 550.391 205C542.235 217.371 535.82 222.649 518.869 227L517.23 220Z" fill="#FDB79C"/>
<path d="M505.23 458.5L494.73 450V442V437.25V432.5L513.73 429V432.5V440V451L505.23 458.5Z" fill="#FDC8AB"/>
<path d="M468.23 450.5L457.23 456.5L449.73 446.5V442V434L468.23 435.5V440V450.5Z" fill="#FDC8AB"/>
<path d="M468.23 435.5L449.73 434V442C457.84 442.409 462.108 442.265 468.23 440V435.5Z" fill="#FDB79C"/>
<path d="M494.73 442C503.095 443.109 506.754 442.049 513.73 440V432.5L494.73 437.25V442Z" fill="#FDB79C"/>
<path d="M518.73 464.506H419.73C416.23 465.5 415.232 455.5 419.23 456C430.037 455.324 432.73 453.917 437.73 448.998C444.936 441.91 448.32 440.35 451.73 445.998C457.154 453.167 458.73 454.998 464.73 448.006C470.73 441.013 473.73 442.498 473.73 448.006C473.693 456.534 475.542 457.778 484.73 448.006C490.72 441.589 493.73 439.998 499.73 448.499C505.73 457 506.517 454.064 511.23 448.006C514.793 443.466 518.23 441.499 518.73 448.006V464.506Z" fill="#3A4146"/>
<path d="M518.73 432C507.887 437.29 500.974 437.795 487.73 436L485.366 429L475.23 399L473.516 432L473.23 437.5C452.701 438.228 446.486 436.765 441.23 432L438.357 261L438.23 253.5L516.73 264.5L517.73 348.25L518.73 432Z" fill="#003567"/>
<path d="M473.516 432L475.23 399L485.366 429C476.447 372.708 470.761 341.385 459.23 286C460.27 343.69 464.362 375.514 473.516 432Z" fill="#022E4F"/>
<path d="M516.73 264.5L438.23 253.5L438.357 261C486.843 297.394 509.551 317.198 517.73 348.25L516.73 264.5Z" fill="#022F51"/>
<path d="M466.219 143C467.219 153 490.219 156 500.719 143.5C503.881 144.765 506.874 146.089 509.714 147.5C516.262 150.754 521.994 154.472 527.102 159C532.886 164.128 537.868 170.294 542.326 178C545.72 183.867 548.81 190.626 551.719 198.5C541.165 209.25 534.733 213.733 522.719 220C524.981 240.325 525.867 251.234 525.719 268.5C491.219 280 441.219 276 433.719 263C434.122 256.227 434.514 250.088 434.851 244.5C435.663 231.047 436.157 220.779 435.719 212.5C422.216 203.931 415.952 198.861 411.219 188.5C420.517 174.2 428.241 164.588 437.202 157.5C442.275 153.488 447.744 150.286 454.119 147.5C457.815 145.885 461.815 144.411 466.219 143Z" fill="#FFCF3D"/>
<path d="M525.719 268.5C491.219 280 441.219 276 433.719 263C434.122 256.227 434.514 250.088 434.851 244.5C472.278 249.231 493.15 251.331 522.719 220C524.981 240.325 525.867 251.234 525.719 268.5Z" fill="#FCC230"/>
<path d="M551.719 198.5C541.165 209.25 534.733 213.733 522.719 220L516.219 199.5C531.029 195.159 537.495 191.122 542.326 178C545.72 183.867 548.81 190.626 551.719 198.5Z" fill="#FCC230"/>
<path d="M435.719 212.5C422.216 203.931 415.952 198.861 411.219 188.5C425.425 190.708 432.706 190.463 444.719 188L435.719 212.5Z" fill="#FCC230"/>
<path d="M454.12 147.5C476.22 165 490.045 165.588 509.715 147.5C516.263 150.754 521.996 154.472 527.103 159C492.809 188.822 473.058 185.964 437.203 157.5C442.276 153.488 447.745 150.286 454.12 147.5Z" fill="#FCC230"/>
</svg>
